<?xml version="1.0" encoding="utf-8"?>
<!-- Generator: Adobe Illustrator 22.1.0, SVG Export Plug-In . SVG Version: 6.00 Build 0)  -->
<svg version="1.1" id="Calque_2" xmlns="http://www.w3.org/2000/svg" xmlns:xlink="http://www.w3.org/1999/xlink" x="0px" y="0px"
	 viewBox="0 0 448.1 438.6" style="enable-background:new 0 0 448.1 438.6;" xml:space="preserve">
<style type="text/css">
	.st0{fill:#FFFFFF;}
	.st1{fill:#2D3233;}
	.st2{fill:#80BB69;}
</style>
<g>
	<g>
		<path class="st0" d="M222.3,434.5c-43.1,0-83.8-11.6-109-31c-9.9,2-28.5,5.1-46,5.1c-11.1,0-20.1-1.3-26.8-3.8
			C21.2,397.5,7.6,385.6,4,373.1c-2.5-8.8-0.4-17.9,6.5-26.8c3.1-4.1,6.2-7.5,9.6-10.6v-29.1c0-7.7,6.8-13.9,15.2-13.9h21.1
			c-13.2-20-21.6-35.3-25.7-46.7c-8.6-24.3-0.8-64.8,16.7-86.5c17-21.2,58.3-36.1,80.3-37.5c1.7-0.1,3.5-0.2,5.4-0.2
			c20,0,43.3,6.2,44,6.4c2.4-2.4,5-4.6,7.7-6.8c0.3-0.2,0.6-0.5,0.9-0.7c-4.9-5.9-11.9-15.6-11-22.7c1.3-10,12.5-25.6,17.9-29.9
			c3.7-2.9,5.4-6,5-7.2c-0.3-0.8-1.8-1.3-4.1-1.4c-7.8-0.2-22.9-5.1-29.8-12.5c-2.6-2.8-3.9-5.8-3.7-8.9c0.2-2.9,0.2-5.7,0.3-8.4
			c0.2-8.4,0.4-14.4,2.6-17.5c0.8-1.1,0.6-2.7,0.4-4.3c-0.2-1.6-0.4-3.2,0.6-4.4c0.6-0.7,1.6-1.1,2.8-1.1c3.3,0,14.2,2.4,15.4,5.9
			c0.4,1,0,2.1-1,2.9c-2.5,1.9-5.3,13.2-5.7,19c-0.1,1.9,1.1,4.5,3.2,6.9c3.2,3.6,7.6,5.8,12.1,6.1c10.2,0.6,22.8,6.3,22.8,12.2
			c0,1.4-0.7,3.6-1.6,5.9c2.6-1.7,16.8-10.6,25.4-10.6c0.3,0,0.5,0,0.8,0c8,0.5,24.3,5.7,26.3,10c1.4,3.1,10.8,22.3,10.8,22.5
			c0,0,0,0.1,0.1,0.1l5.7,15.8c4.5-8,1.4-17.4-1.8-27.3c-0.5-1.5-1-2.9-1.4-4.4c-1.4-4.7-1.5-8.2,0-10.8c2-3.6,6.1-4.8,10.5-6
			c0.9-0.2,1.7-0.5,2.6-0.7c7.1-2.2,17.9-14.4,21.5-24.2c0.2-0.6,0.8-1,1.4-1c0.1,0,0.2,0,0.3,0l13.3,2.7c0.6,0.1,1.1,0.6,1.2,1.2
			c0.1,0.5,2.1,11.3-3.3,15.6c-4.8,3.9-20,14.4-29.8,19.9c-4.5,2.6-3.8,4.7-1,10.4c1.6,3.3,3.6,7.4,4.2,12.4
			c1.6,13.1-6,28.9-13.9,36.1c-1.9,1.7-4.3,3.3-7.3,4.6c1.4,1.8,2.8,3.7,4.1,5.9c6.9-5.8,19.7-15.1,36.2-20c9.9-3,18.9-4.4,27.6-4.4
			c15.4,0,30.5,4.3,49,14.1c25.6,13.5,39.3,35.3,43.1,68.6c2.7,24.1-2.6,74.1-17.2,97.6c-1.5,2.4-3.2,5-4.9,7.6
			c5.8,4.1,9.3,10.4,9.3,17.1v19.3c4.3,3.6,8.3,7.8,12.1,12.8c6.8,9,9,18,6.5,26.8c-3.6,12.5-17.2,24.4-36.5,31.7
			c-6.7,2.5-15.7,3.8-26.8,3.8c0,0,0,0,0,0c-19.2,0-39.7-3.8-48.4-5.6C306.8,422.8,265.9,434.5,222.3,434.5z M348.3,385.9
			c4.6,2.1,11.2,4.2,18.6,4.2c1.1,0,2.2,0,3.3-0.1c9-0.8,14.9-6.2,17.2-11.5h-34.8C351.3,381,349.9,383.5,348.3,385.9z M60.3,378.5
			c2.3,5.3,8.3,10.7,17.2,11.5c1.1,0.1,2.2,0.1,3.3,0.1c6.3,0,12-1.6,16.2-3.2c-1.9-2.7-3.5-5.6-4.9-8.5H60.3z M388.6,292.6
			c2.7-4,4.7-7.8,5.9-11.2c4-11.1,6.8-29.8,7.2-48.9c0.5-20.5-1.8-37-6.3-45.1c-9.9-18.1-26.4-28.1-46.5-28.1c-4.5,0-9.2,0.5-14,1.5
			c-26.1,5.5-41.2,18.4-43.5,20.5c-0.3,1.3-0.6,2.6-1,3.8c-2,6.5-1.8,13.6-1.4,21.4c0.3,0.1,0.5,0.2,0.8,0.3
			c1.9,0.7,3.3,2.1,4.1,4.1c1.6,3.9,0.7,9.4-1,13.2c-0.8,1.8-2.1,4.1-3.5,6.6c-1.9,3.3-4.9,8.9-4.8,10.3l0,0
			c1.2,2.8,4.7,11.5-0.7,14.8c-1.1,0.6-2.3,1-3.5,1l0,0c-0.6,0-1.1-0.1-1.7-0.2c-0.1,0.8-0.2,1.7-0.4,2.7c0,0.2-0.1,0.4-0.1,0.7
			c9,1.3,17.1,3.9,24,7.5c7.9,4.2,15.4,12.6,22.3,25.1H388.6z M155.1,166.2c-3.2,0.3-6.6,0.7-10.1,1.3c-1.4,0.2-2.8,0.4-4.1,0.6
			c-18.8,2.9-31.2,4.8-54.1,32.2C75.1,214.4,72,236,78.1,262.6c0.9,3.9,3.2,9.7,6.8,17.1c7.7-3.2,13.6-4.4,15.7-4.8
			c1.5-2.8,8.2-12.6,28.5-21c9.8-4,16.9-5,21-5.2c-1.4-1.6-2.5-3.4-3.3-5.3c-2.7-6.4,0.9-16.5,2.2-18.8c0.1-0.2,0.2-0.4,0.2-0.7
			l0-0.2c-0.1-0.4-0.3-1.3-0.6-2.6l-0.2-0.7c-0.8-2.6-1.9-6.5-2.9-12.8c-0.3-1.9-0.5-3.6-0.6-5.2l0-0.1c0-0.1,0-0.2,0-0.3l0-0.1
			c-0.5-6.6,0.4-10.1,1.4-14.1c0.3-1.1,0.6-2.3,0.9-3.7c1.3-6.1,4.9-8.2,6.8-8.9C154,173.5,154.2,170.7,155.1,166.2z"/>
		<path class="st0" d="M166.9,4c4.5,0,16.8,3.6,13.5,6.1c-3.3,2.5-5.9,14.9-6.3,20.1c-0.3,5.2,7,14,16.7,14.6
			c9.8,0.6,21.3,6.1,21.3,10.7c0,2.4-2.6,8.3-5.9,14.4c3.6-4,6.3-7,6.3-7s16-10.6,25-10.6c0.2,0,0.5,0,0.7,0c8.8,0.6,23.6,6,25,9.1
			c1.5,3.1,10.9,22.5,10.9,22.5l6.7,18.6c0,0,0.1-0.1,0.1-0.1c8-10.3,2.5-22.5-1.5-35.3c-4-12.8,4.3-13.3,12.1-15.7
			c7.8-2.4,18.9-15.3,22.4-25.1l13.3,2.7c0,0,2,10.3-2.7,14.2c-4.7,3.8-19.9,14.3-29.6,19.8c-9.7,5.5,1,11.7,2.5,24.3
			c1.5,12.6-5.8,27.9-13.4,34.9c-2.5,2.3-5.6,3.9-8.7,5.2c2.2,2.4,4.2,5.2,6.2,8.7c6.3-5.5,19.5-15.7,37-20.9
			c9.5-2.8,18.4-4.3,27.2-4.3c15.1,0,30.2,4.4,48.3,13.9c24,12.6,38.4,33.4,42.3,67.5c2.8,24.5-3,74.1-17,96.6
			c-1.7,2.8-3.6,5.8-5.7,8.9c5.9,3.6,9.9,9.7,9.9,16.6v20c4.3,3.5,8.4,7.7,12.4,13c19.3,25.4-3.9,46.6-29.4,56.3
			c-7.2,2.7-16.5,3.7-26.3,3.7c-19.6,0-40.7-4-48.7-5.7c-24,19.1-64,31.6-109.3,31.6c-44.9,0-84.6-12.3-108.7-31.1
			c-9.3,1.9-28.4,5.2-46.3,5.2c-9.7,0-19.1-1-26.3-3.7c-25.5-9.7-48.7-30.8-29.4-56.3c3.2-4.2,6.5-7.8,9.9-10.9v-29.8
			c0-6.8,6.2-12.4,13.7-12.4h23.9c-10.3-15.5-21.9-34.2-27.1-48.7c-8.5-24-0.5-63.9,16.5-85.1c17-21.2,58-35.6,79.3-36.9
			c1.7-0.1,3.5-0.2,5.3-0.2c20.3,0,43.6,6.3,43.6,6.3v1c2.7-2.7,5.7-5.4,9-8.1c0.7-0.6,1.4-1.1,2.1-1.6c-4.4-5-12.6-15.6-11.7-22.7
			c1.2-9.6,12.2-24.8,17.4-28.9c5.2-4.1,9.4-11,0-11.3c-9.4-0.3-32.6-8.3-32-19.8c0.6-11.6,0-21.5,2.6-25.1
			C166.8,9.5,162.4,4,166.9,4 M280.3,255.3c-1.1,0-2.1-0.3-3.1-0.7c-0.1,1.2-0.2,2.6-0.5,4.4c-0.1,0.7-0.3,1.5-0.5,2.2
			c7.6,1,16.7,3.1,25.1,7.6c9.4,5,16.8,15.6,22.1,25.3h66.1c2.8-4.1,5.1-8.2,6.5-12.2c8.3-23,10.9-76.9,0.8-95.2
			c-9.4-17.3-25.9-28.9-47.8-28.8c-4.6,0-9.3,0.5-14.3,1.6c-29.1,6.1-44.6,21.2-44.6,21.2l0,0c-0.3,1.4-0.7,2.8-1.1,4.2
			c-2.2,7.2-1.9,15.2-1.4,23.1c0.5,0.1,1.1,0.2,1.7,0.5c5.3,2,4.5,10.2,2.3,15.3c-2.3,5.1-9.2,15.7-8.3,17.9
			c0.9,2.3,4.3,10.4-0.1,13.1C282.2,255.1,281.2,255.3,280.3,255.3 M84.2,281.6c10-4.4,17.4-5.4,17.4-5.4s4.9-11.4,28.1-21
			c10.8-4.4,18.3-5.2,21.9-5.2c1.1,0,1.8,0.1,2.2,0.1c-2.2-1.7-4.4-4.4-5.7-7.4c-2.4-5.6,0.7-15,2.1-17.5c0.2-0.4,0.4-0.9,0.4-1.4
			c0-0.1,0-0.2,0-0.2c0-0.1,0-0.1,0-0.2c-0.1-0.2-0.3-1.3-0.6-2.7c-0.8-2.6-2-6.5-3.1-13.4c-0.3-1.9-0.5-3.6-0.6-5.1
			c0-0.1,0-0.1,0-0.2c0-0.1,0-0.3,0-0.4c-0.6-8.2,0.9-11.2,2.3-17.4c1.7-7.5,6.9-8.1,6.9-8.1s-0.4-3.1,1.5-11.6
			c-3.5,0.3-7.6,0.7-12.2,1.5c-20.9,3.3-34.2,3.5-59.1,33.3c-17,20.4-12.2,49.6-9,63.6C77.8,267.7,80.8,274.6,84.2,281.6
			 M366.8,391.6c1.1,0,2.3,0,3.4-0.2c10.8-1,17.5-8.3,19.2-14.5h-37.9c-1.4,3.3-3.3,6.5-5.5,9.6
			C350.6,388.7,358.2,391.6,366.8,391.6 M80.8,391.6c7.3,0,13.9-2.1,18.5-4c-2.5-3.4-4.6-7-6.2-10.6H58.2
			c1.7,6.2,8.4,13.5,19.2,14.5C78.5,391.6,79.6,391.6,80.8,391.6 M166.9,1c-1.7,0-3,0.5-4,1.6c-1.5,1.7-1.2,3.8-1,5.5
			c0.2,1.3,0.3,2.6-0.2,3.2c-2.5,3.4-2.6,9.7-2.9,18.3c-0.1,2.7-0.2,5.4-0.3,8.4c-0.2,3.5,1.2,6.9,4.1,10c7.1,7.7,22.7,12.7,30.8,13
			c1.7,0,2.4,0.3,2.7,0.5c-0.1,0.9-1.5,3.1-4.5,5.5c-5.7,4.5-17.1,20.3-18.5,30.9c-0.9,6.9,4.7,15.7,10.4,22.6
			c-2.4,1.9-4.7,4-6.9,6.1c-4.4-1.1-25-6.2-43.6-6.2c-1.9,0-3.8,0.1-5.5,0.2c-11.5,0.7-27.6,5-42.2,11.3
			c-12.3,5.2-29,14.1-39.2,26.8c-17.8,22.1-25.7,63.2-17,88c3.9,11.1,11.9,25.7,24.3,44.7H35.2c-9.2,0-16.7,6.9-16.7,15.4V335
			c-3.2,3-6.3,6.4-9.3,10.4c-7.1,9.4-9.4,18.8-6.7,28.2c3.7,13,17.7,25.2,37.4,32.7c6.8,2.6,16,3.9,27.3,3.9c17.2,0,35.5-3,45.6-5
			c25.5,19.4,66.3,30.9,109.4,30.9c43.6,0,84.6-11.7,110.1-31.3c9,1.8,29.2,5.4,48,5.4c11.3,0,20.5-1.3,27.3-3.9
			c19.7-7.5,33.7-19.7,37.4-32.7c2.7-9.3,0.4-18.8-6.7-28.2c-3.8-5-7.6-9.1-11.8-12.6v-18.6c0-6.7-3.2-13.1-8.8-17.4
			c1.4-2.2,2.8-4.4,4.1-6.5c14.8-23.7,20.2-74.2,17.4-98.5c-2-17.3-6.6-31.4-14.1-43.1c-7.2-11.2-17-19.9-29.8-26.7
			c-18.7-9.8-34-14.2-49.7-14.2c-8.9,0-18.1,1.5-28.1,4.5c-15.7,4.7-28.2,13.3-35.4,19.2c-0.7-1.1-1.4-2.1-2.1-3.1
			c2.3-1.2,4.3-2.6,5.9-4.1c8.3-7.6,16-23.7,14.4-37.4c-0.6-5.3-2.7-9.5-4.4-12.9c-2.9-5.9-2.9-6.6,0.4-8.5
			c9.8-5.6,25.2-16.1,30-20.1c5.9-4.8,4-15.8,3.8-17.1c-0.2-1.2-1.2-2.1-2.4-2.4l-13.3-2.7c-0.2,0-0.4-0.1-0.6-0.1
			c-1.2,0-2.4,0.8-2.8,2c-3.3,9.3-13.8,21.2-20.5,23.2c-0.8,0.3-1.7,0.5-2.6,0.7c-4.5,1.2-9.2,2.5-11.4,6.7c-1.6,3-1.7,6.9-0.1,12
			c0.5,1.5,0.9,3,1.4,4.4c2.8,8.5,5.2,16.1,3.3,22.7l-4.4-12.2c0-0.1-0.1-0.2-0.1-0.3c-0.1-0.2-9.4-19.4-10.8-22.5
			c-0.4-0.9-1.6-3.5-11.4-7.1c-5.7-2.1-11.7-3.5-16.1-3.8c-0.3,0-0.6,0-0.9,0c-7,0-17.1,5.3-22.7,8.6c0.2-0.9,0.3-1.7,0.3-2.4
			c0-7.6-14.3-13.2-24.2-13.7c-5.8-0.3-9.7-4-11.1-5.6c-2.1-2.3-2.9-4.6-2.8-5.8c0.4-6.3,3.3-16.5,5.1-17.9c1.5-1.1,2.1-2.9,1.5-4.5
			C182,2.9,169,1,166.9,1L166.9,1z M292.7,182.1c5.7-5.2,21.1-15.3,42.5-19.8c4.7-1,9.3-1.5,13.7-1.5c0,0,0,0,0,0
			c19.5,0,35.6,9.7,45.2,27.3c9.3,16.9,7.3,69.8-1,92.8c-1.1,3.1-2.9,6.6-5.3,10.3h-62.7c-6.9-12.3-14.4-20.7-22.4-25
			c-6.7-3.5-14.3-6-22.9-7.4c0-0.2,0-0.3,0.1-0.4c0.2,0,0.3,0,0.5,0c1.6,0,3-0.4,4.3-1.2c4.3-2.6,4.8-8.1,1.5-16.3
			c0.3-1.7,3-6.4,4.6-9.3c1.4-2.5,2.7-4.9,3.5-6.7c1.7-3.8,2.9-9.8,1-14.4c-1-2.3-2.6-4-4.8-4.9c-0.4-7.3-0.4-13.9,1.4-19.9
			C292.1,184.4,292.4,183.3,292.7,182.1L292.7,182.1z M85.7,277.8c-3.2-6.7-5.3-12-6.1-15.5c-6-26.1-3.1-47.2,8.4-61
			c22.5-27,34.7-28.8,53.1-31.6c1.3-0.2,2.7-0.4,4.1-0.6c2.8-0.4,5.4-0.8,8-1.1c-0.5,2.8-0.7,4.8-0.7,6.1c-2.3,1.1-5.5,3.7-6.8,9.6
			c-0.3,1.3-0.6,2.5-0.9,3.6c-1.1,4.2-2,7.8-1.5,14.6l0,0.1c0,0.2,0,0.3,0,0.5l0,0.1c0.1,1.7,0.3,3.4,0.6,5.3c1,6.4,2.1,10.4,2.9,13
			l0.2,0.7c0.2,1.1,0.4,1.9,0.5,2.4c0,0,0,0,0,0c-1.6,2.8-5.2,13.3-2.3,20.1c0.5,1.2,1.1,2.3,1.9,3.4c-4.3,0.5-10.6,1.8-18.7,5.1
			c-19.4,7.9-26.7,17.4-28.9,21C97.3,274,92.2,275.2,85.7,277.8L85.7,277.8z M353.4,380h31.4c-2.6,4.1-7.7,7.9-14.9,8.5
			c-1,0.1-2.1,0.1-3.1,0.1c-6.3,0-12-1.6-16.3-3.4C351.6,383.5,352.6,381.7,353.4,380L353.4,380z M62.8,380h28.4
			c1,2.1,2.2,4.2,3.5,6.2c-3.8,1.3-8.6,2.5-13.9,2.5c-1.1,0-2.1,0-3.1-0.1C70.5,387.8,65.4,384.1,62.8,380L62.8,380z"/>
	</g>
	<g>
		<ellipse class="st1" cx="221.8" cy="359.8" rx="132.9" ry="73.2"/>
		<path class="st1" d="M277.1,139.7c0,0,16.3-17.2,41-24.6c25.7-7.7,46.9-5.5,75.5,9.5c24,12.6,38.4,33.4,42.3,67.5
			c2.8,24.5-3,74.1-17,96.6s-39.6,59-53.1,68.1s-17.1-2.9-17.1-2.9l2.6-21.8c0,0,35.9-27.1,44.2-50.1c8.3-23,10.9-76.9,0.8-95.2
			c-11.4-20.8-33.1-33.4-62.2-27.3c-29.1,6.1-44.6,21.2-44.6,21.2l-31.4,28.2v-49.3L277.1,139.7z"/>
		<path class="st0" d="M280.6,148.8c0,0,30.1-15.7,52.3-19.9c25.1-4.8,44.3,1.6,61.6,16c17.3,14.4,22.8,26.2,24.1,46.9
			c1.1,18.4,0.4,32.4-0.9,38.6c-4.6,21-12.1,34.7-12.1,34.7l0.3-19.9c0,0,7.3-18,8.3-46.8c0.9-26.4-8.4-41.4-14.3-47.1
			c-5.9-5.7-28.2-23.6-57-18.2c-28.7,5.3-62.3,22.8-62.3,22.8V148.8z"/>
		<path class="st0" d="M282.3,162.8c0,0,28.9-17.3,51.3-18.9c25-1.8,43.5,4.9,56.1,16.1c16.3,14.4,17.6,32.8,18.3,38.6
			c0.7,5.7-0.7,31-0.7,31s1-29.3-4.5-40c-5.5-10.7-8.7-19.8-25-31.8c-14.4-10.6-38.7-11.1-54.3-8.7c-15.1,2.3-40.1,16.6-40.1,16.6
			L282.3,162.8z"/>
		<path class="st1" d="M176.3,129.6c0,0-27.7-7.5-48.9-6.2c-21.3,1.3-62.2,15.8-79.3,36.9s-25,61.1-16.5,85.1
			c8.5,24,34.6,59.4,43.6,73c9,13.6,23.2-9.9,23.2-9.9s-19-31.6-22.2-45.6c-3.2-13.9-7.9-43.2,9-63.6c24.8-29.8,38.1-30,59.1-33.3
			c23.4-3.7,32-0.7,32-0.7V129.6z"/>
		<path class="st1" d="M153.8,250.3c0,0-8.6-1.5-24.5,5c-23.2,9.5-28.1,21-28.1,21s-18,2.4-36,16.4c-18,13.9-32.2,40-35,46.8
			c-2.8,6.8-2,35.1-2,35.1l0,0l362.2,2.2c0,0,5.4-11.7-1-23.7s-20.1-29.1-36.6-34.2c-16.6-5.1-21.3-5.1-21.3-5.1s-11.3-34.7-30.7-45
			c-19.4-10.3-42.4-8.3-42.4-8.3L153.8,250.3z"/>
		<path class="st1" d="M251.6,115.2c-28.1-4.7-50.4-5.6-66.2,7.3s-25.1,26.7-27.9,38.1c-2.8,11.5-2.4,15.5-2.4,15.5
			s-5.2,0.6-6.9,8.1c-1.7,7.5-3.5,10.3-1.7,23.1c1.9,12.8,4.7,15.4,3.3,18c-1.4,2.6-4.5,12-2.1,17.5c2.4,5.6,7.8,9.8,10.9,9.6
			c3.1-0.2,13,18.8,27.9,29.7c14.9,10.9,20.3,12.8,34.1,12.8c13.7,0,19.6,2.6,26.7,0.9c7.1-1.7,23.9-16.7,27-28.6
			c3.1-12,0.7-11.5,4.5-20.5s9-18.2,8.8-29.1s-2.1-22.7,0.9-32.9c3.1-10.3,3.5-23.5-2.1-37.6c-5.7-14.1-11.1-20.9-18.7-26.1
			C260.1,115.9,251.6,115.2,251.6,115.2z"/>
		<path class="st0" d="M222.1,213.6c-2.2-0.8,1.7-0.6-2.2-0.8s-18.2-1.1-21.4-4.6c-3.2-3.5-13.4-2.9-15.1-8
			c-1.8-5.1,0-13.1,5.9-13.6c5.9-0.5,14.4,0.9,11.5-1.1c-2.8-2-12.9-7.3-13.8-11.8c-0.9-4.5,5.8-12.6,3.3-10.2
			c-2.5,2.4-18.3,18.4-19,20.7c-0.7,2.2-6.6,7.2-5.2,9.7c1.4,2.6-2.2,5.6-3.9,10.3c-1.8,4.6,4.6,24.9,11.9,21.8
			c4.1-1.7-10.1-9.5-8.7-14.3c1.4-4.8,4.3-11.5,2.7-10.6c-1.6,1-6.7,0.5-7.4,4.5c-0.7,4,0.4,5.9,1.2,8c0.9,2.1,1.2,10.6,3.4,14.4
			c2.1,3.8,2.8,3.5,5.3,4.5c2.5,1,7.6,4,5.9,8.5c-1.8,4.5-8.9,7.5-9.4,9.8c-0.5,2.2,0.3,10.2,5.7,18c5.3,7.8,11.5,11.8,16.4,15.2
			c4.9,3.4,6.3-0.8,4-5.1s-5.5-27.6-7.3-33.8c-1.8-6.3-1.8-16.3-2.3-17.6c-0.5-1.3,1.8,3.8,5.7,5.3c3.9,1.4,9.6,1.8,14.2,0.2
			c4.6-1.6,13.2-5.9,15.3-6.6s-3.4,5.3-8.6,7.5s-12.9,14.9-15,19.1c-2.1,4.2-1,20,1.1,24.8c2.1,4.8,4.6,6.6,10.1,9.9
			c5.5,3.4,13.1-0.2,20.7,0.1c7.6,0.3,11.8,1.4,12.9,3.1s4.5,2.4,8.3,1.4c3.7-1,18.3-11.6,20-14.1c1.7-2.5,2.9-4.3,2.9-4.3
			s3.7-8.2,4.9-15c2.3-12.6-3.1-9.6-5.6-11.7c-2.4-2.1-6.9-7.5-7.7-6.4c-0.9,1.1,1.4,11.6,1.2,17.4c-0.2,5.8-0.4,13-2.5,16.1
			c-2.1,3-1.2,6.6-4.4,5.1c-3.2-1.4-6.2-11.1-9.9-13c-3.7-1.9,4.8,0.7-7.7-0.5c-9.5-0.9-18.9,0-21.4,2.1s-7.1,5.4-10,6.3
			c-2.8,0.8-5.1-0.2-5.1-0.2s3.5,0.6,6.7-1.8s3.9-3.8,3.9-3.8s-3.5,2.4-7.4,2.1c-3.9-0.3-6-3-6-4.5c0-1.4,0.4,0.6,2.8,1.4
			c2.5,0.8,6.4,0.6,9.9-1.9c3.5-2.6,8.5-5.9,11.7-5.9s-2.3-1.1-2.7-2.4s-2.8-1.3-5.1-2.9s-11.6-1.3-11.6-1.3s-2.8-4.3,0.7-5.9
			c3.5-1.6,8.2-5.8,12-9.6c3.8-3.8,6.8-8.7,6.8-8.7s-5.3-6.1-2.8-9.5s-2.7,0.7,0,0C224.8,218.9,222.1,213.6,222.1,213.6z"/>
		<path class="st0" d="M247.2,264C247.2,264,244.9,262.6,247.2,264c2.3,1.4,1.7,1.1,3.8,4.3s3.7,7.7,5.3,8.5c1.6,0.8,4.4-1,5.3,0
			s1.9-8.5,2-9.8c0.1-1.2-5.2-6.5-5.2-6.5s-5.1,0.9-6.4,1.1c-3.5,0.5,2,0.8,0,0C250.1,260.9,247.2,264,247.2,264z"/>
		<path class="st0" d="M205.3,250.6c0,0-0.7-2.4,3.5-3.5c4.3-1.1,8.3-0.6,13.3-2.4c5-1.8,6.9-3.5,12.1-3.8c5.1-0.3,5.7,2.2,8.7,2.7
			s3-1.6,7.1-0.8s7.1,3.5,9.2,7.1s2.3,7.4,3.2,7.4s1.8,2.6,0,2.6c-1.8,0-4.5-4.6-7.3-7.4s-8.7-4.2-10.3-3.8
			c-1.6,0.3-6.3-0.5-7.9-1.3c-1.6-0.8-7.7-1-12.5,0.2c-4.8,1.1-16,3.8-16,3.8s0.1,1-1.8,1s-2.3-1.9-2.3-1.9L205.3,250.6z"/>
		<path class="st0" d="M222.1,250.2c0,0,9.4-1.1,11.8-1.1s5.4,1.6,8.6,1.9c3.2,0.3,4.8,0,7.3,1.3c2.5,1.3,5.6,3,5.3,3.5
			s0.7,2.4-5.6,1.3c-6.4-1.1-9.3-1.8-12.6-2.2c-3.2-0.5-6.2,0.2-10-1.6C223.2,251.5,222.1,250.2,222.1,250.2z"/>
		<path class="st0" d="M229.7,231.3c0,0-5.7-3.4-3.2-7.4c2.5-4,5.6-4.3,7.3-4.3s4.7,2.2,5.6,3.4c0.9,1.1,3.9,3.5,3.4,2.5
			c-0.5-1-1.5-2.6,0.1-4.2c1.5-1.6,4.2-4,4.9-4.2c0.7-0.2,4.8,0.2,5.9,2.7c1.1,2.6,1.6,5.1,0,7.2c-1.6,2.1-3.7,4.3-3.7,4.3
			s5.6-1.7,6.2-3.5c0.5-1.8,0.4-4.6,0.4-4.6s0.3,1.8,1.9,2.9c1.6,1.1,3.5,0.6,3,2.9c-0.5,2.2,0,4.8-3.7,5.8c-3.7,1-5.8-0.8-9.2,0
			c-3.4,0.8-7.5,1-9.9-1c-2.5-1.9-3.1-1.9-4.7-2.2C232.2,231.3,229.7,231.3,229.7,231.3z"/>
		<path class="st0" d="M164.8,234.3c0-1.1-5.2-4-6.4-4.3c-1.2-0.3-3.1-3-4-1.1s-5.5,9.8-5.5,9.8s6.2,6.7,7.5,4.5
			c1.2-2.2,0.5-2.6,3-2.4C161.8,240.9,163,237.8,164.8,234.3c4.5-8.5-10.5-5.4-14.7-29.3c-0.9-5.3-3-12.9-2.1-11s4.1,9.1,4.1,9.1
			s-0.5-3.3-0.5-9.1s-0.5-8.7,1.8-10.3s6.5-2.9,7.2-0.5c0.8,2.4,3.1,10.1,1.8,13.1c-1.2,3-2.1,2.4-1.8-1.4c0.2-3.8,0.8-8.5-1.7-8
			c-2.5,0.5-5,1.6-5,4.5s-0.4,13.3,0.2,14.3c0.5,1,0.5,14.7,2.3,17.8c1.8,3,4.2-10.5,4.2-10.5l-5.4-10c0,0,3.6,2.7,7.6,0
			s6.6-6.3,6.3-10.3s-5.3-14.6-8.4-14.9c-3.1-0.3-8.5,2.4-9.9,5.3c-1.4,2.9-5.3,13.7-4.7,19c0.6,5.3,4.3,21.5,4.3,21.5
			s0.1,4.9-1.1,10.9c-1.2,5.9,0.6,11.8,8.3,10.4c7.4-1.3,7.5-9.4,7.5-9.4"/>
		<path class="st1" d="M190.1,123.8c0,0-15.5-16-14.3-25.6c1.2-9.6,12.2-24.8,17.4-28.9s9.4-11,0-11.3c-9.4-0.3-32.6-8.3-32-19.8
			s0-21.5,2.6-25.1S161.9,4,166.4,4c4.5,0,16.8,3.6,13.5,6.1s-5.9,14.9-6.3,20.1c-0.3,5.2,7,14,16.7,14.6s21.3,6.1,21.3,10.7
			s-9.6,22-15.4,28.9s-11.7,10.5-3.1,19.3c8.5,8.8,10.7,15.1,10.7,15.1L190.1,123.8z"/>
		<path class="st1" d="M313.5,26.2c-3.5,9.8-14.6,22.7-22.4,25.1C283.3,53.7,275,54.2,279,67s9.4,25.1,1.5,35.3
			c-8,10.3-22.3,18.6-22.3,18.6l3.9,9.6c0,0,13.9-1.5,21.5-8.4c7.6-6.9,14.9-22.3,13.4-34.9s-12.2-18.8-2.5-24.3
			s24.9-15.9,29.6-19.8s2.7-14.2,2.7-14.2L313.5,26.2z"/>
		<path class="st1" d="M198.1,120.4c0,0,13-14.6,25.4-22.3s26.2-12.3,30.2-12.3c4,0,8.3,7.1,11.5,15.4s4.9,15.9,4.5,22.5
			s0,9.9,0,9.9s-10.3-4.8-18.3-6.8s-34-6.6-37.2-6.3S198.1,120.4,198.1,120.4z"/>
		<path class="st1" d="M212.1,62.9c0,0,16.8-11.2,25.7-10.6c8.8,0.6,23.6,6,25,9.1c1.5,3.1,10.9,22.5,10.9,22.5l7.3,20.2l-4.3,15.4
			l-3,7.4l-8.5-1.7l-8.9-13.4l-32.8-2l-28.6,9.2c0,0-4.4-7.1-6.9-14.8c-2.5-7.7-0.6-13.5,6.9-22C202.4,73.6,212.1,62.9,212.1,62.9z"
			/>
		<path class="st0" d="M201,89.6c0,0,9.9,17.2,14.1,16.3c4.2-0.9,6.3-9.5,6.3-9.5L216,85.9L201,89.6z"/>
		<path class="st0" d="M211.2,76.9c0,0,5,5.7,7.3,8.9c2.3,3.2,2.9,11.2,5.7,10c2.7-1.3,12.2-9,12.2-9.4s-3-7.2-3-7.2
			s-14.2-2.7-17.2-3.2S211.2,76.9,211.2,76.9z"/>
		<path class="st0" d="M230.3,68l9,18.8c0,0,8.4-0.8,10.5-2.8c2.1-2.1,4-2.5,6.1-0.9c2.1,1.5,5.5,4.9,5.9,3.8s-5.7-12.3-5.7-12.3
			s-5.7,0-12.4-2.1c-6.7-2.1-8.3-2.3-10.4-4.4c-2-2.1-5.2-4.6-5.2-4.6L230.3,68z"/>
		<path class="st0" d="M264.1,84.2c0,0,0,7.1,1.7,11.8c1.7,4.7,1.5,12.2,2.7,9.9c1.3-2.3,1.1-14.9,1.1-14.9L264.1,84.2z"/>
		<path class="st0" d="M157.1,137.8c0,0-8-5.4-36.5-1.7c-25.6,3.4-40.2,12.7-52.7,25.5s-19.5,26.1-19.5,26.1s19.5-28.2,38.7-36.2
			s29.8-9.2,46.5-9.5c16.7-0.3,23.7,2.4,23.7,2.4L157.1,137.8z"/>
		<path class="st0" d="M158.8,154.3c0,0-34.1,0-58.6,8.3c-21.9,7.5-36.8,26.5-41.8,39.7s-4.7,21.3-0.4,31.6s7.1,15.5,7.1,15.5
			s-14.2-24-3.9-41s21.1-36.8,46.9-42.4s52.4-5.4,52.4-5.4L158.8,154.3z"/>
		<path class="st1" d="M282.7,211c0,0,0.8-4.8,6-2.7c5.3,2,4.5,10.2,2.3,15.3c-2.3,5.1-9.2,15.7-8.3,17.9c0.9,2.3,4.3,10.4-0.1,13.1
			c-4.4,2.7-10.1-2.6-10.1-2.6L282.7,211z"/>
		<path class="st1" d="M414.2,377H29.9c-4.9,0-8.9-4-8.9-8.9V303c0-4.9,4-8.9,8.9-8.9h378.8c7.9,0,14.3,6.5,14.3,14.3v59.6
			C423.1,373,419.1,377,414.2,377z"/>
		<g>
			<path class="st2" d="M178,351.8v-34.4h5.6c1.2,0,2,0.5,2.3,1.5l0.6,2.7c0.8-0.7,1.6-1.4,2.4-1.9c0.9-0.6,1.8-1.1,2.7-1.5
				c1-0.4,2-0.7,3.1-1c1.1-0.2,2.3-0.3,3.6-0.3c2.1,0,3.9,0.3,5.5,1c1.6,0.6,2.9,1.5,4,2.7c1.1,1.2,1.9,2.5,2.5,4.1
				c0.6,1.6,0.8,3.4,0.8,5.3v21.9H202v-21.9c0-2.1-0.5-3.7-1.6-4.9c-1.1-1.2-2.7-1.7-4.8-1.7c-1.6,0-3.1,0.3-4.5,1
				c-1.4,0.6-2.7,1.5-3.9,2.7v24.9H178z"/>
			<path class="st2" d="M229.7,307.4c0,0.7-0.2,1.4-0.5,2c-0.3,0.6-0.7,1.2-1.3,1.6c-0.5,0.5-1.2,0.8-1.9,1.1
				c-0.7,0.3-1.5,0.4-2.3,0.4c-0.8,0-1.5-0.1-2.2-0.4c-0.7-0.3-1.3-0.7-1.8-1.1c-0.5-0.5-0.9-1-1.2-1.6c-0.3-0.6-0.5-1.3-0.5-2
				c0-0.7,0.2-1.4,0.5-2.1c0.3-0.6,0.7-1.2,1.2-1.7c0.5-0.5,1.1-0.8,1.8-1.1c0.7-0.3,1.5-0.4,2.2-0.4c0.8,0,1.6,0.1,2.3,0.4
				c0.7,0.3,1.3,0.7,1.9,1.1c0.5,0.5,1,1,1.3,1.7C229.5,306,229.7,306.6,229.7,307.4z M228.3,317.4v34.4h-9.2v-34.4H228.3z"/>
			<path class="st2" d="M252.4,317.9c-10.9,0-18.6,7.4-18.6,17.9c0,10.2,7.4,17.4,18,17.4c9.3,0,18.7-5.5,18.7-17.9
				C270.4,324.9,263.2,317.9,252.4,317.9z M262.2,335.5c0,6.9-4.3,11.9-10.1,11.9c-5.9,0-10.1-5-10.1-11.8c0-5.9,3.2-11.9,10.3-11.9
				C260.1,323.7,262.2,331.5,262.2,335.5z"/>
			<g>
				<path class="st2" d="M246.2,311.9c-1.6,0-3.2,0.8-5,2.3v-5.5c1.5-1.4,3.4-2.1,5.7-2.1c1,0,1.9,0.1,2.8,0.3
					c0.9,0.2,1.9,0.5,3.2,1c1.9,0.7,3.6,1.1,5.1,1.1c0.7,0,1.5-0.2,2.4-0.6c0.9-0.4,1.7-1,2.5-1.7v5.5c-1.5,1.4-3.4,2.1-5.7,2.1
					c-1,0-2-0.1-2.9-0.3c-0.9-0.2-1.9-0.5-3.1-1C249.4,312.3,247.7,311.9,246.2,311.9z"/>
			</g>
		</g>
		<path class="st1" d="M84.4,319.5c-32.3,0-53.9,2.2-73.3,27.7c-19.3,25.4,3.9,46.6,29.4,56.3s78.3-2.7,78.3-2.7l-13.4-16.6
			c0,0-13.1,8.7-28.6,7.3s-22.5-15.7-18.6-21.4c3.1-4.5,7.3-11.5,26.1-12.9S84.4,319.5,84.4,319.5z"/>
		<path class="st1" d="M362.3,319.5c32.3,0,53.9,2.2,73.3,27.7c19.3,25.4-3.9,46.6-29.4,56.3s-78.3-2.7-78.3-2.7l13.4-16.6
			c0,0,13.1,8.7,28.6,7.3s22.5-15.7,18.6-21.4c-3.1-4.5-7.3-11.5-26.1-12.9S362.3,319.5,362.3,319.5z"/>
		<path class="st0" d="M197.9,365.8c0.5-0.1,0.8-0.3,1-0.7l0.6-0.9l-5.2-1.5l-0.3,0.8c-2.3,6.2-6.1,12.3-9.9,15.8l-0.5,0.5l0.5,0.6
			c0.4,0.5,1,1.5,1.3,2.1l0.6,1.1l0.9-0.9c1.2-1.2,2.4-2.4,3.5-3.8v18.4h4.5v-23.4c0.5-0.3,0.7-0.6,0.7-0.9l0.1-0.7l-0.8-0.2
			C196,370,197,367.9,197.9,365.8z"/>
		<rect x="198.3" y="368.5" class="st0" width="23" height="4.1"/>
		<rect x="196.3" y="390.5" class="st0" width="26.6" height="4.1"/>
		<polygon class="st0" points="245,391.7 245,382 258.1,382 258.1,378 245,378 245,369.3 259.4,369.3 259.4,365.3 226.2,365.3 
			226.2,369.3 240.3,369.3 240.3,378 227.9,378 227.9,382 240.3,382 240.3,391.7 224.1,391.7 224.1,395.8 261.5,395.8 261.5,391.7 
					"/>
		<path class="st0" d="M171.4,184.2l19.7-7.7c0,0,22.3,8.4,26.3,10.3c4,1.9,23.5,7.3,25,10.3c1.5,3.1,10.9,4.7,15.4,1.3
			c4.5-3.4,7.5-5.7,7.5-5.7s-21.7-3.5-19-8.8c5.5-11,2.1-37.7-9.8-52.2c-9.6-11.7,42.2,4.6,33.2-7.9c-6.6-9.1-38.2-12.9-53.7-10.2
			c-9.1,1.6-49.6,10.2-49.6,52.8C166.2,174.1,171.4,184.2,171.4,184.2z"/>
		<path class="st1" d="M238.7,241.5c0,0,2.3,1.9,2.3,3.6c0,1.7-2.3,4-2.3,4s4.6,1.9,3.4,4.2c-1.1,2.3-5.4,4.2-5.4,4.2
			s-2.1,6.8-1.2,11.3c0.9,4.5,3.4,11.1-0.2,14.5c-3.7,3.3-24.3,7.9-24.3,7.9s30.2,7,36.2,4.7c6.1-2.4,25.5-10.3,26.2-26.4
			c0.7-17.2,5-28.7,5-28.7l-9.1-17.4c0,0,0,15.8-9.9,16.1c-9.9,0.3-19.7-1.3-19.7-1.3L238.7,241.5z"/>
		<path class="st1" d="M162,213.7c0,0,5.9,9.7,9.4-5.4c1-4.5,10.2,16.5,12.2,19.1c2.1,2.7,5,18.8,5,18.8s2.8,23.1,5.3,27.3
			c2.5,4.2,7.1,10.7,19.3,13.3c12.2,2.6,17.7,2.7,17.7,2.7s-9,3.6-17.7,3.3c-8.7-0.3-33.9-2.7-39.2-7.6c-5.3-4.9-11-20.2-10.8-26.7
			c0.2-6.5-4.7-8.6,0-11.3C167.9,244.5,162,213.7,162,213.7z"/>
	</g>
</g>
</svg>
